M48
;DRILL file {KiCad (2017-07-10 revision 2a301d5)-master} date Wed Jul 19 04:45:39 2017
;FORMAT={-:-/ absolute / inch / decimal}
FMAT,2
INCH,TZ
T1C0.024
T2C0.035
T3C0.118
%
G90
G05
M72
T1
X2.1496Y-4.0945
X2.3031Y-2.2953
X2.4722Y-3.9997
X2.4843Y-2.2126
X2.588Y-2.2865
X2.6212Y-2.169
X2.6299Y-3.5984
X2.6378Y-2.3701
X2.6378Y-2.7795
X2.65Y-2.66
X2.6508Y-4.0748
X2.7109Y-2.3033
X2.7414Y-4.0738
X2.7441Y-2.5787
X2.7598Y-2.1142
X2.8189Y-3.9882
X2.8778Y-3.7841
X2.9366Y-3.6956
X2.9955Y-3.7959
X3.0787Y-3.874
X3.1339Y-3.4882
X3.1614Y-2.9843
X3.2165Y-3.1378
X3.2205Y-3.8898
X3.3071Y-2.7953
X3.4016Y-4.0433
X3.4803Y-3.0591
X3.4882Y-3.9843
X3.5276Y-2.9528
X3.6024Y-3.9803
X3.6496Y-2.9213
X3.689Y-2.1339
X3.6969Y-3.0197
X3.6969Y-4.0394
X3.7482Y-2.315
X3.8071Y-4.0354
X3.8216Y-3.6118
X3.8307Y-2.2559
X3.8583Y-2.6772
X3.9094Y-4.0591
X3.9601Y-3.9677
X3.9685Y-2.7953
X4.0352Y-3.1342
X4.0669Y-3.8701
X4.1614Y-3.874
X4.252Y-4.1732
X4.512Y-4.0825
X4.6181Y-4.0787
X4.7244Y-4.0591
X4.752Y-2.4055
X4.7717Y-3.8031
X5.1969Y-2.4843
X4.4646Y-3.8937
X4.5343Y-3.8437
X4.5343Y-3.9437
X4.8476Y-3.8886
X4.8976Y-3.8386
X4.8976Y-3.9386
T2
X4.7638Y-2.6929
X4.7638Y-2.8701
X5.0197Y-2.6929
X5.0197Y-2.8701
X5.1181Y-3.0465
X5.1181Y-3.2236
X5.374Y-3.0465
X5.374Y-3.2236
X4.7638Y-3.4008
X4.7638Y-3.578
X5.0197Y-3.4008
X5.0197Y-3.578
X2.0866Y-4.2126
X2.1866Y-4.2126
X2.2866Y-4.2126
X2.5Y-4.2
X2.6Y-4.2
X2.7Y-4.2
X2.8Y-4.2
X2.9Y-4.2
X3.Y-4.2
X3.1Y-4.2
X3.2Y-4.2
X3.3Y-4.2
X3.4Y-4.2
X3.5Y-4.2
X3.6Y-4.2
X3.7Y-4.2
X3.8Y-4.2
X3.9Y-4.2
X4.Y-4.2
X4.1Y-4.2
X4.4094Y-3.0472
X4.4094Y-3.2244
X4.6654Y-3.0472
X4.6654Y-3.2244
X4.7638Y-3.0465
X4.7638Y-3.2236
X5.0197Y-3.0465
X5.0197Y-3.2236
X4.4Y-4.2
X4.5Y-4.2
X4.6Y-4.2
X4.7Y-4.2
X4.8Y-4.2
X4.9Y-4.2
X5.Y-4.2
T3
X4.908Y-2.35
X5.03Y-2.1611
X5.1481Y-2.35
T0
M30
