G04 #@! TF.GenerationSoftware,KiCad,Pcbnew,(2017-07-10 revision 2a301d5)-master*
G04 #@! TF.CreationDate,2017-07-19T04:45:36+02:00*
G04 #@! TF.ProjectId,pcb_esp,7063625F6573702E6B696361645F7063,rev?*
G04 #@! TF.SameCoordinates,Original
G04 #@! TF.FileFunction,Copper,L1,Top,Signal*
G04 #@! TF.FilePolarity,Positive*
%FSLAX46Y46*%
G04 Gerber Fmt 4.6, Leading zero omitted, Abs format (unit mm)*
G04 Created by KiCad (PCBNEW (2017-07-10 revision 2a301d5)-master) date Wed Jul 19 04:45:36 2017*
%MOMM*%
%LPD*%
G01*
G04 APERTURE LIST*
%ADD10O,1.600000X2.000000*%
%ADD11O,2.000000X1.600000*%
%ADD12O,1.900000X2.900000*%
%ADD13O,2.159000X2.540000*%
%ADD14C,5.000000*%
%ADD15C,2.000000*%
%ADD16C,0.400000*%
G04 APERTURE END LIST*
D10*
X115170000Y-100470000D03*
X115170000Y-97330000D03*
D11*
X113400000Y-98900000D03*
D10*
X124400000Y-100340000D03*
X124400000Y-97200000D03*
D11*
X122830000Y-98770000D03*
D12*
X127500000Y-90880000D03*
X121000000Y-90880000D03*
X127500000Y-86380000D03*
X121000000Y-86380000D03*
X118500000Y-81900000D03*
X112000000Y-81900000D03*
X118500000Y-77400000D03*
X112000000Y-77400000D03*
X136500000Y-81880000D03*
X130000000Y-81880000D03*
X136500000Y-77380000D03*
X130000000Y-77380000D03*
X121000000Y-77380000D03*
X127500000Y-77380000D03*
X121000000Y-81880000D03*
X127500000Y-81880000D03*
X121000000Y-68400000D03*
X127500000Y-68400000D03*
X121000000Y-72900000D03*
X127500000Y-72900000D03*
D13*
X104140000Y-106680000D03*
X101600000Y-106680000D03*
X99060000Y-106680000D03*
X96520000Y-106680000D03*
X93980000Y-106680000D03*
X91440000Y-106680000D03*
X88900000Y-106680000D03*
X86360000Y-106680000D03*
X83820000Y-106680000D03*
X81280000Y-106680000D03*
X78740000Y-106680000D03*
X76200000Y-106680000D03*
X73660000Y-106680000D03*
X71120000Y-106680000D03*
X68580000Y-106680000D03*
X66040000Y-106680000D03*
X63500000Y-106680000D03*
X111760000Y-106680000D03*
X114300000Y-106680000D03*
X116840000Y-106680000D03*
X119380000Y-106680000D03*
X121920000Y-106680000D03*
X124460000Y-106680000D03*
X127000000Y-106680000D03*
D14*
X124663200Y-59690000D03*
X127762000Y-54891940D03*
X130761740Y-59690000D03*
D13*
X53000000Y-107000000D03*
X55540000Y-107000000D03*
X58080000Y-107000000D03*
D15*
X66800000Y-91400000D03*
X67000000Y-70600000D03*
X81700000Y-79700000D03*
X80300000Y-75800000D03*
X93700000Y-54200000D03*
X102495010Y-79608450D03*
X121200000Y-96600000D03*
X79600000Y-88600000D03*
X132000000Y-63100000D03*
X108000000Y-106000000D03*
X120000000Y-103100000D03*
X58500000Y-58300000D03*
X120700000Y-61100000D03*
X99300000Y-103100000D03*
X54600000Y-104000000D03*
X100800000Y-71000000D03*
X103300000Y-98300000D03*
X105700000Y-98400000D03*
X98000006Y-68000000D03*
X84000000Y-71000000D03*
X67000000Y-60200000D03*
X71600000Y-101300000D03*
X62792868Y-101592868D03*
X63100000Y-56200000D03*
X74590020Y-93867893D03*
X65735084Y-58076474D03*
X69632081Y-103474456D03*
X114605006Y-103695010D03*
X70100000Y-53699998D03*
X100586828Y-100779734D03*
X117300000Y-103600000D03*
X66579377Y-55091840D03*
X97068663Y-91740011D03*
X68855867Y-58504990D03*
X73095010Y-96115288D03*
X95204990Y-58800000D03*
X93900000Y-102600000D03*
X86400000Y-102700000D03*
X89600000Y-75000000D03*
X91500000Y-101100000D03*
X93900000Y-76700000D03*
X96700000Y-102500000D03*
X97300000Y-57300000D03*
X67329977Y-103500000D03*
X92700000Y-74200000D03*
X88600000Y-101200000D03*
X88400000Y-77700000D03*
X81800000Y-98800000D03*
X69700000Y-65500000D03*
X67310000Y-67564000D03*
X78200000Y-98400000D03*
X76085022Y-96416753D03*
D16*
X67000000Y-70600000D02*
X67000000Y-91200000D01*
X67000000Y-91200000D02*
X66800000Y-91400000D01*
X80300000Y-75800000D02*
X80300000Y-78300000D01*
X80300000Y-78300000D02*
X81700000Y-79700000D01*
X92700001Y-55199999D02*
X93700000Y-54200000D01*
X79600000Y-87185787D02*
X78804999Y-86390786D01*
X79600000Y-88600000D02*
X79600000Y-87185787D01*
X78804999Y-86390786D02*
X78804999Y-69095001D01*
X78804999Y-69095001D02*
X92700001Y-55199999D01*
X103495009Y-80608449D02*
X102495010Y-79608450D01*
X119486560Y-96600000D02*
X103495009Y-80608449D01*
X121200000Y-96600000D02*
X119486560Y-96600000D01*
X128000000Y-111000000D02*
X132000000Y-107000000D01*
X113000000Y-111000000D02*
X128000000Y-111000000D01*
X108000000Y-106000000D02*
X113000000Y-111000000D01*
X132000000Y-107000000D02*
X132000000Y-64514213D01*
X132000000Y-64514213D02*
X132000000Y-63100000D01*
X120000000Y-103100000D02*
X120000000Y-99400000D01*
X120000000Y-99400000D02*
X116434990Y-95834990D01*
X108100000Y-96000000D02*
X105700000Y-98400000D01*
X116434990Y-95834990D02*
X108265010Y-95834990D01*
X108265010Y-95834990D02*
X108100000Y-96000000D01*
X63800000Y-51100000D02*
X58500000Y-56400000D01*
X58500000Y-56400000D02*
X58500000Y-58300000D01*
X110700000Y-51100000D02*
X63800000Y-51100000D01*
X120700000Y-61100000D02*
X110700000Y-51100000D01*
X70467817Y-104914990D02*
X97485010Y-104914990D01*
X97485010Y-104914990D02*
X99300000Y-103100000D01*
X69617193Y-105300000D02*
X70082807Y-105300000D01*
X67077193Y-105300000D02*
X67542807Y-105300000D01*
X67542807Y-105300000D02*
X67927817Y-104914990D01*
X58412183Y-104914990D02*
X66692183Y-104914990D01*
X57497193Y-104000000D02*
X58412183Y-104914990D01*
X66692183Y-104914990D02*
X67077193Y-105300000D01*
X70082807Y-105300000D02*
X70467817Y-104914990D01*
X67927817Y-104914990D02*
X69232183Y-104914990D01*
X54600000Y-104000000D02*
X57497193Y-104000000D01*
X69232183Y-104914990D02*
X69617193Y-105300000D01*
X101000000Y-96000000D02*
X101000000Y-71200000D01*
X101000000Y-71200000D02*
X100800000Y-71000000D01*
X103300000Y-98300000D02*
X101000000Y-96000000D01*
X96585793Y-68000000D02*
X98000006Y-68000000D01*
X87000000Y-68000000D02*
X96585793Y-68000000D01*
X84000000Y-71000000D02*
X87000000Y-68000000D01*
X71487229Y-64687229D02*
X67999999Y-61199999D01*
X71487229Y-99773016D02*
X71487229Y-64687229D01*
X71600000Y-101300000D02*
X71600000Y-99885787D01*
X71600000Y-99885787D02*
X71487229Y-99773016D01*
X67999999Y-61199999D02*
X67000000Y-60200000D01*
X62792868Y-100178655D02*
X62792868Y-101592868D01*
X67310000Y-67564000D02*
X62792868Y-72081132D01*
X62792868Y-72081132D02*
X62792868Y-100178655D01*
X69101054Y-56586841D02*
X65861776Y-56586841D01*
X65474935Y-56200000D02*
X64514213Y-56200000D01*
X74590020Y-62075807D02*
X69101054Y-56586841D01*
X64514213Y-56200000D02*
X63100000Y-56200000D01*
X65861776Y-56586841D02*
X65474935Y-56200000D01*
X74590020Y-93867893D02*
X74590020Y-62075807D01*
X96204989Y-59799999D02*
X95204990Y-58800000D01*
X94878650Y-90470867D02*
X98495001Y-86854516D01*
X98495001Y-86854516D02*
X98495001Y-69717607D01*
X99495007Y-68717601D02*
X99495007Y-63090017D01*
X94878650Y-100207137D02*
X94878650Y-90470867D01*
X98495001Y-69717607D02*
X99495007Y-68717601D01*
X93900000Y-101185787D02*
X94878650Y-100207137D01*
X93900000Y-102600000D02*
X93900000Y-101185787D01*
X99495007Y-63090017D02*
X96204989Y-59799999D01*
X99190012Y-70005485D02*
X99190012Y-87406058D01*
X97300000Y-57300000D02*
X100190014Y-60190014D01*
X95700001Y-101500001D02*
X96700000Y-102500000D01*
X100190014Y-69005483D02*
X99190012Y-70005485D01*
X95573661Y-101373661D02*
X95700001Y-101500001D01*
X99190012Y-87406058D02*
X95573661Y-91022409D01*
X100190014Y-60190014D02*
X100190014Y-69005483D01*
X95573661Y-91022409D02*
X95573661Y-101373661D01*
X67329977Y-103500000D02*
X68809978Y-102019999D01*
X64735085Y-62747689D02*
X64735085Y-59076473D01*
X68809978Y-102019999D02*
X68809978Y-66822582D01*
X68809978Y-66822582D02*
X64735085Y-62747689D01*
X64735085Y-59076473D02*
X65735084Y-58076474D01*
X69700000Y-103406537D02*
X69632081Y-103474456D01*
X69700000Y-65500000D02*
X69700000Y-103406537D01*
X113190793Y-103695010D02*
X114605006Y-103695010D01*
X103502104Y-103695010D02*
X113190793Y-103695010D01*
X100586828Y-100779734D02*
X103502104Y-103695010D01*
X71099999Y-54699997D02*
X70100000Y-53699998D01*
X78104998Y-61704996D02*
X71099999Y-54699997D01*
X78200000Y-96985787D02*
X78104998Y-96890785D01*
X78200000Y-98400000D02*
X78200000Y-96985787D01*
X78104998Y-96890785D02*
X78104998Y-61704996D01*
X104687398Y-101900000D02*
X109900000Y-101900000D01*
X115900000Y-102200000D02*
X110200000Y-102200000D01*
X110200000Y-102200000D02*
X109900000Y-101900000D01*
X117300000Y-103600000D02*
X115900000Y-102200000D01*
X97068663Y-94281265D02*
X104687398Y-101900000D01*
X97068663Y-91740011D02*
X97068663Y-94281265D01*
X76085022Y-62570809D02*
X68606053Y-55091840D01*
X68606053Y-55091840D02*
X67993590Y-55091840D01*
X76085022Y-96416753D02*
X76085022Y-62570809D01*
X67993590Y-55091840D02*
X66579377Y-55091840D01*
X73095010Y-96115288D02*
X72182240Y-95202518D01*
X72182240Y-61831363D02*
X69855866Y-59504989D01*
X72182240Y-95202518D02*
X72182240Y-61831363D01*
X69855866Y-59504989D02*
X68855867Y-58504990D01*
X86400000Y-101285787D02*
X86400000Y-102700000D01*
X86400000Y-101187398D02*
X86400000Y-101285787D01*
X90599999Y-75999999D02*
X90599999Y-96987399D01*
X90599999Y-96987399D02*
X86400000Y-101187398D01*
X89600000Y-75000000D02*
X90599999Y-75999999D01*
X93900000Y-76700000D02*
X93900000Y-98700000D01*
X93900000Y-98700000D02*
X91500000Y-101100000D01*
X92200000Y-97600000D02*
X92200000Y-74700000D01*
X92200000Y-74700000D02*
X92700000Y-74200000D01*
X88600000Y-101200000D02*
X92200000Y-97600000D01*
X88500000Y-86600000D02*
X88500000Y-77800000D01*
X88500000Y-77800000D02*
X88400000Y-77700000D01*
X82799999Y-92300001D02*
X88500000Y-86600000D01*
X81800000Y-98800000D02*
X82799999Y-97800001D01*
X82799999Y-97800001D02*
X82799999Y-92300001D01*
M02*
